<svg width="470" height="98" viewBox="0 0 470 98" fill="none" xmlns="http://www.w3.org/2000/svg">
<path d="M150.797 21.5664H148.386V80.5664H150.797V21.5664Z" fill="#888888"/>
<path d="M288.937 32.4258C287.852 32.4258 286.888 32.7874 286.165 33.5106C285.442 34.2339 285.08 34.9571 285.08 35.9215C285.08 36.8858 285.442 37.609 286.165 38.3323C286.888 39.0555 287.852 39.4172 288.937 39.4172C290.022 39.4172 290.987 39.0555 291.71 38.3323C292.433 37.609 292.795 36.7653 292.795 35.9215C292.795 35.0777 292.433 34.2339 291.71 33.5106C290.987 32.7874 290.022 32.4258 288.937 32.4258Z" fill="#3E3E3E"/>
<path d="M188.406 29.8212C192.625 29.8212 196.603 31.5088 200.581 35.0045L204.317 31.6293C199.496 27.2898 194.192 24.9996 188.406 24.9996C182.138 24.9996 176.955 27.1693 172.615 31.5088C168.276 35.8483 166.226 40.911 166.226 46.9381C166.226 52.9651 168.396 58.0279 172.615 62.3673C176.955 66.7068 182.138 68.756 188.406 68.756C194.192 68.756 199.496 66.5863 204.317 62.2468L200.581 58.8716C196.603 62.3673 192.625 64.0549 188.406 64.0549C183.825 64.0549 179.968 62.3674 176.593 59.1127C173.218 55.8581 171.651 51.7597 171.651 46.9381C171.651 42.1164 173.338 38.1386 176.593 34.7634C179.848 31.5088 183.825 29.8212 188.406 29.8212Z" fill="#3E3E3E"/>
<path d="M214.804 25.9995H209.38V68.6711H214.804V25.9995Z" fill="#414141"/>
<path d="M249.761 53.9466C249.761 49.6071 248.435 46.1114 245.904 43.4595C242.891 40.446 239.274 38.9995 234.935 38.9995C230.595 38.9995 226.979 40.446 224.086 43.4595C221.073 46.473 219.626 49.9687 219.626 54.0671C219.626 58.1655 221.073 61.6612 224.086 64.6747C227.1 67.6883 230.716 69.1348 234.935 69.1348C239.274 69.1348 242.891 67.5678 245.904 64.5542C246.868 63.5899 247.712 62.505 248.556 61.1791L243.493 59.3709C242.649 60.3353 242.167 60.938 241.926 61.2996C239.877 63.3488 237.587 64.3131 234.935 64.3131C232.283 64.3131 229.993 63.3488 227.943 61.4202C225.894 59.4915 225.05 57.0807 225.05 54.1877V54.0671H249.761V53.9466ZM234.935 43.7006C239.515 43.7006 242.529 45.5087 243.734 49.2455H226.015C227.341 45.5087 230.234 43.7006 234.935 43.7006Z" fill="#3E3E3E"/>
<path d="M267.843 43.58C270.495 43.58 272.785 44.5443 274.713 46.473C274.955 46.7141 275.437 47.3168 276.16 48.2811L281.223 46.3525C280.258 45.0265 279.415 43.9417 278.691 43.339C275.798 40.446 272.182 38.9995 267.843 38.9995C263.503 38.9995 259.887 40.4459 256.994 43.4595C253.98 46.473 252.534 49.9687 252.534 54.0671C252.534 58.1655 253.98 61.6612 256.994 64.6747C260.007 67.6883 263.624 69.1348 267.843 69.1348C272.182 69.1348 275.798 67.5677 278.812 64.5542C279.415 63.9515 280.258 62.9872 281.223 61.5407L276.16 59.612C275.437 60.4558 274.955 61.0585 274.834 61.1791C272.785 63.2283 270.495 64.1926 267.843 64.1926C265.191 64.1926 262.9 63.2283 260.972 61.1791C259.043 59.2504 258.079 56.8396 258.079 53.9466C258.079 51.0536 259.043 48.6428 260.972 46.5936C262.9 44.5444 265.191 43.58 267.843 43.58Z" fill="#3E3E3E"/>
<path d="M291.589 42H286.285V69.1218H291.589V42Z" fill="#3E3E3E"/>
<path d="M312.563 38.9995C308.224 38.9995 304.608 40.446 301.715 43.4595C298.701 46.473 297.255 49.9687 297.255 54.0671C297.255 58.1655 298.701 61.6612 301.715 64.6747C304.728 67.6883 308.344 69.1348 312.563 69.1348C316.903 69.1348 320.519 67.6883 323.533 64.6747C326.426 61.6612 327.993 58.1655 327.993 54.0671C327.993 49.9687 326.546 46.473 323.533 43.4595C320.519 40.446 316.903 38.9995 312.563 38.9995ZM319.555 61.2996C317.626 63.2283 315.336 64.1926 312.684 64.1926C310.032 64.1926 307.742 63.2283 305.693 61.2996C303.643 59.3709 302.8 56.9601 302.8 54.0671C302.8 51.1741 303.764 48.7633 305.693 46.7141C307.621 44.7854 309.912 43.7006 312.684 43.7006C315.336 43.7006 317.626 44.6649 319.555 46.7141C321.483 48.6428 322.568 51.1741 322.568 54.0671C322.448 56.8396 321.483 59.3709 319.555 61.2996Z" fill="#3E3E3E"/>
<path d="M344.266 42.7552C342.217 41.7909 340.529 40.706 339.324 39.5006C338.118 38.1747 337.395 36.7282 337.395 34.92C337.395 33.1119 337.998 31.5449 339.324 30.3395C340.65 29.0135 342.096 28.4108 343.904 28.4108C345.712 28.4108 347.279 29.0135 348.485 30.3395C349.208 31.0627 349.69 31.786 350.052 32.6298L352.221 31.786C351.86 30.5806 351.137 29.6163 350.293 28.6519C348.485 26.9643 346.436 26 344.025 26C341.493 26 339.444 26.8438 337.757 28.6519C336.069 30.3395 335.105 32.5092 335.105 34.92C335.105 37.4514 335.948 39.5006 337.757 41.1882C339.444 42.8758 341.855 44.3223 344.868 45.2866C347.4 46.3715 349.449 47.6974 351.257 49.385C353.186 51.3136 354.271 53.7245 354.271 56.4969C354.271 59.2694 353.306 61.6802 351.257 63.6089C349.328 65.5375 346.918 66.6224 344.145 66.6224C341.373 66.6224 338.962 65.6581 337.033 63.6089C335.346 61.9213 334.381 59.9926 334.14 57.7023L331.971 58.5461C332.332 61.0775 333.538 63.3678 335.466 65.2964C337.877 67.7073 340.77 69.0332 344.266 69.0332C347.641 69.0332 350.654 67.8278 353.065 65.417C355.476 63.0062 356.682 59.9926 356.682 56.6175C356.682 53.2423 355.476 50.2288 353.065 47.818C350.534 45.5277 347.641 43.8401 344.266 42.7552Z" fill="#3E3E3E"/>
<path d="M374.522 40C370.544 40 367.169 41.4465 364.396 44.219C361.624 46.9914 360.177 50.4871 360.177 54.465C360.177 58.4429 361.624 61.818 364.396 64.5904C367.169 67.3629 370.664 68.8094 374.522 68.8094C378.499 68.8094 381.875 67.3629 384.768 64.5904C387.54 61.818 388.986 58.4429 388.986 54.465C388.986 50.4871 387.54 47.112 384.768 44.219C381.995 41.4465 378.499 40 374.522 40ZM382.959 62.9029C380.669 65.1932 377.776 66.3986 374.522 66.3986C371.267 66.3986 368.494 65.1932 366.084 62.9029C363.793 60.6126 362.588 57.8401 362.588 54.465C362.588 51.2104 363.793 48.3174 366.084 46.0271C368.374 43.7368 371.267 42.5314 374.522 42.5314C377.776 42.5314 380.669 43.7368 382.959 46.0271C385.25 48.3174 386.455 51.2104 386.455 54.465C386.455 57.7196 385.25 60.492 382.959 62.9029Z" fill="#3E3E3E"/>
<path d="M412.251 58.9109C412.251 61.0807 411.407 63.0094 409.84 64.4559C408.273 66.0229 406.344 66.7461 404.175 66.7461C401.884 66.7461 399.835 66.0229 398.268 64.4559C396.701 62.8888 395.857 61.0807 395.857 58.9109V42.9995H393.447V59.0315C393.447 61.9245 394.531 64.3353 396.34 66.264C398.268 68.1926 400.8 69.1569 404.054 69.1569C407.068 69.1569 409.599 68.1926 411.407 66.264C413.336 64.3353 414.3 61.9245 414.3 59.0315V42.9995H411.889V58.9109H412.251Z" fill="#3E3E3E"/>
<path d="M436.359 44H419.001V46.2903H432.381L419.001 69.3137H437.444V66.9028H423.1L436.359 44Z" fill="#3E3E3E"/>
<path d="M467.579 46.0271C467.097 45.4244 466.615 44.8217 466.133 44.219C463.36 41.4465 459.865 40 455.887 40C451.909 40 448.534 41.4465 445.761 44.219C442.989 46.9914 441.542 50.4871 441.542 54.465C441.542 58.4429 442.989 61.818 445.761 64.5904C448.534 67.3629 452.03 68.8093 455.887 68.8093C459.865 68.8093 463.24 67.3629 466.133 64.5904C466.615 63.9877 467.218 63.5055 467.579 62.7822V68.0862H469.99V42.2903H467.579V46.0271ZM467.579 56.8757C467.097 59.166 466.012 61.2152 464.325 62.9028C462.034 65.1931 459.141 66.3986 455.887 66.3986C452.632 66.3986 449.739 65.1931 447.449 62.9028C445.159 60.6125 443.953 57.8401 443.953 54.465C443.953 51.2104 445.159 48.3173 447.449 46.0271C449.739 43.7368 452.632 42.5314 455.887 42.5314C459.141 42.5314 462.034 43.7368 464.325 46.0271C466.012 47.7147 467.097 49.7639 467.579 52.0542V56.8757Z" fill="#3E3E3E"/>
<path d="M82.9323 59.7886C82.5707 60.2708 82.0886 60.3913 81.6064 60.3913C81.6064 60.3913 59.6679 60.3913 57.6187 60.3913C54.4846 60.3913 54.3641 66.0567 57.6187 66.0567C59.5473 66.0567 82.4502 66.0567 82.4502 66.0567C83.6556 66.0567 85.1021 65.5746 86.7897 64.4897C88.8389 62.8021 89.8032 60.8735 89.8032 58.4627V53.0383C89.8032 51.1096 89.2005 49.422 87.9951 47.9756C86.7897 46.5291 85.2226 45.6853 83.1734 45.2031C82.8118 45.0826 82.2091 45.0826 81.6064 45.0826H64.1279C63.2841 45.0826 62.5609 44.8415 61.9582 44.2388C61.3555 43.7566 60.9938 43.0334 60.9938 42.1896V39.6582C60.9938 37.9706 61.8376 37.1268 63.4047 37.1268C63.4047 37.1268 84.2583 37.1268 87.3924 37.1268C90.5264 37.1268 90.4059 31.4614 87.3924 31.4614C84.3788 31.4614 62.9225 31.4614 62.9225 31.4614C60.5117 31.4614 58.7036 32.1847 57.3776 33.5106C56.0516 34.9571 55.3284 36.8858 55.3284 39.2966V43.6361C55.3284 44.8415 55.69 46.0469 56.2927 47.0112C57.7392 49.5426 60.2706 50.748 64.0074 50.748H80.8831C83.1734 50.748 84.2583 51.8329 84.2583 54.0026V56.6545C83.8967 58.3421 83.535 59.3064 82.9323 59.7886Z" fill="#005095"/>
<path d="M91.2497 19.6482C87.9951 14.8266 81.0037 8.55841 74.0123 5.18326C67.0209 1.68756 59.1857 0 50.3862 0C35.9213 0 23.9877 4.70112 14.3444 13.9828C4.82165 23.2645 0 34.8364 0 48.4576C0 61.476 3.97785 72.5658 11.813 81.7269C21.2153 92.5756 34.1132 98 50.3862 98C58.9447 98 66.7798 96.433 73.6507 93.1784C80.6421 89.9237 87.754 83.1734 91.0086 79.4367C94.2632 75.6999 86.7897 68.7085 83.6556 73.8918C72.8069 85.5843 63.8868 89.2005 50.8684 89.2005C38.9348 89.2005 29.171 85.3432 21.3358 77.7491C13.5006 70.155 9.6433 60.6322 9.6433 49.3014C9.6433 41.8278 11.3309 34.957 14.8266 28.9299C18.3223 22.9028 23.2645 18.0812 29.5326 14.5855C35.9213 10.9693 42.7921 9.28165 50.2657 9.28165C57.016 9.28165 63.2841 10.6076 68.9496 13.3801C74.615 16.1525 80.5215 21.818 83.5351 25.4342C88.1156 30.6175 94.7454 23.6261 91.2497 19.6482Z" fill="#005095"/>
<path d="M99.567 28.0862C97.8795 28.0862 96.5535 29.4122 96.5535 31.0998V67.2621C96.5535 68.9497 97.8795 70.2757 99.567 70.2757C101.255 70.2757 102.581 68.9497 102.581 67.2621V31.0998C102.581 29.4122 101.255 28.0862 99.567 28.0862Z" fill="#005095"/>
<path d="M111.621 32.9076C109.934 32.9076 108.608 34.2336 108.608 35.9212V62.4402C108.608 64.1278 109.934 65.4538 111.621 65.4538C113.309 65.4538 114.635 64.1278 114.635 62.4402V35.9212C114.635 34.2336 113.309 32.9076 111.621 32.9076Z" fill="#005095"/>
<path d="M123.675 37.729C121.988 37.729 120.662 39.055 120.662 40.7426V58.8237C120.662 60.5113 121.988 61.8373 123.675 61.8373C125.363 61.8373 126.689 60.5113 126.689 58.8237V40.7426C126.689 39.055 125.363 37.729 123.675 37.729Z" fill="#005095"/>
</svg>
